<?xml version="1.0" encoding="UTF-8"?>
<svg xmlns="http://www.w3.org/2000/svg" viewBox="0 0 366 422.5">
  <defs>
    <style>
      .cls-1 {
        stroke-linecap: round;
        stroke-width: 5px;
      }

      .cls-1, .cls-2, .cls-3 {
        fill: none;
      }

      .cls-1, .cls-3 {
        stroke: #000;
        stroke-miterlimit: 10;
      }

      .cls-4 {
        fill: #fff;
      }

      .cls-2 {
        stroke: #fff;
        stroke-linejoin: round;
      }

      .cls-2, .cls-3 {
        stroke-width: 10px;
      }
    </style>
  </defs>
  <g id="_Слой_1" data-name="Слой_1">
    <rect y="118.5" width="260" height="260"/>
    <g>
      <rect class="cls-4" x="60.5" y="159" width="139" height="139"/>
      <path d="M199,159.5v138H61v-138h138M200,158.5H60v140h140v-140h0Z"/>
    </g>
    <line class="cls-3" x1="130.5" y1="158" x2="130.5" y2="298"/>
    <line class="cls-3" x1="59.5" y1="205" x2="130.5" y2="205"/>
    <g id="_Слой_2" data-name="Слой_2">
      <line class="cls-1" x1="5" y1="112.5" x2="125" y2="2.5"/>
      <line class="cls-1" x1="255" y1="112.5" x2="135" y2="2.5"/>
    </g>
  </g>
  <g id="_Слой_3" data-name="Слой_3">
    <g>
      <path d="M296,417.5c-32.3,0-65-8.59-65-25s32.7-25,65-25,65,8.59,65,25-32.7,25-65,25Z"/>
      <path class="cls-4" d="M296,372.5c33.14,0,60,8.95,60,20s-26.86,20-60,20-60-8.95-60-20,26.86-20,60-20M296,362.5c-34.84,0-70,9.28-70,30s35.16,30,70,30,70-9.28,70-30-35.16-30-70-30h0Z"/>
    </g>
    <g>
      <path d="M295.5,387c-32.3,0-65-8.59-65-25s32.7-25,65-25,65,8.59,65,25-32.7,25-65,25Z"/>
      <path class="cls-4" d="M295.5,342c33.14,0,60,8.95,60,20s-26.86,20-60,20-60-8.95-60-20,26.86-20,60-20M295.5,332c-34.84,0-70,9.28-70,30s35.16,30,70,30,70-9.28,70-30-35.16-30-70-30h0Z"/>
    </g>
    <g>
      <path d="M295.5,357c-32.3,0-65-8.59-65-25s32.7-25,65-25,65,8.59,65,25-32.7,25-65,25Z"/>
      <path class="cls-4" d="M295.5,312c33.14,0,60,8.95,60,20s-26.86,20-60,20-60-8.95-60-20,26.86-20,60-20M295.5,302c-34.84,0-70,9.28-70,30s35.16,30,70,30,70-9.28,70-30-35.16-30-70-30h0Z"/>
    </g>
    <g>
      <path d="M295.5,327c-32.3,0-65-8.59-65-25s32.7-25,65-25,65,8.59,65,25-32.7,25-65,25Z"/>
      <path class="cls-4" d="M295.5,282c33.14,0,60,8.95,60,20s-26.86,20-60,20-60-8.95-60-20,26.86-20,60-20M295.5,272c-34.84,0-70,9.28-70,30s35.16,30,70,30,70-9.28,70-30-35.16-30-70-30h0Z"/>
    </g>
    <line class="cls-2" x1="230.5" y1="302" x2="230.5" y2="392.5"/>
    <line class="cls-2" x1="361" y1="301.5" x2="361" y2="392.5"/>
  </g>
</svg>